<svg width="14" height="14" viewBox="0 0 14 14" fill="none" xmlns="http://www.w3.org/2000/svg">
<path fill-rule="evenodd" clip-rule="evenodd" d="M7.00008 2.33332C4.42275 2.33332 2.33341 4.42266 2.33341 6.99999C2.33341 9.57732 4.42275 11.6667 7.00008 11.6667C9.57741 11.6667 11.6667 9.57732 11.6667 6.99999C11.6667 4.42266 9.57741 2.33332 7.00008 2.33332ZM1.16675 6.99999C1.16675 3.77833 3.77842 1.16666 7.00008 1.16666C10.2217 1.16666 12.8334 3.77833 12.8334 6.99999C12.8334 10.2217 10.2217 12.8333 7.00008 12.8333C3.77842 12.8333 1.16675 10.2217 1.16675 6.99999Z" fill="#12131A"/>
<path fill-rule="evenodd" clip-rule="evenodd" d="M6.99992 4.08334C7.32208 4.08334 7.58325 4.34451 7.58325 4.66668V6.41668H9.33325C9.65542 6.41668 9.91659 6.67784 9.91659 7.00001C9.91659 7.32218 9.65542 7.58334 9.33325 7.58334H7.58325V9.33334C7.58325 9.65551 7.32208 9.91668 6.99992 9.91668C6.67775 9.91668 6.41659 9.65551 6.41659 9.33334V7.58334H4.66659C4.34442 7.58334 4.08325 7.32218 4.08325 7.00001C4.08325 6.67784 4.34442 6.41668 4.66659 6.41668H6.41659V4.66668C6.41659 4.34451 6.67775 4.08334 6.99992 4.08334Z" fill="#12131A"/>
</svg>
