<svg width="19" height="19" viewBox="0 0 19 19" fill="none" xmlns="http://www.w3.org/2000/svg">
<path d="M8.20451 2.37626C7.05154 2.37626 5.92447 2.71815 4.96581 3.35871C4.00715 3.99926 3.25997 4.90971 2.81875 5.97491C2.37753 7.04012 2.26208 8.21224 2.48702 9.34305C2.71195 10.4739 3.26716 11.5126 4.08243 12.3279C4.8977 13.1431 5.93642 13.6983 7.06723 13.9233C8.19805 14.1482 9.37017 14.0328 10.4354 13.5915C11.5006 13.1503 12.411 12.4031 13.0516 11.4445C13.6921 10.4858 14.034 9.35874 14.034 8.20577C14.0339 6.65972 13.4197 5.17702 12.3265 4.08379C11.2333 2.99057 9.75057 2.37636 8.20451 2.37626V2.37626Z" stroke="black" stroke-width="1.00189" stroke-miterlimit="10"/>
<path d="M12.5532 12.555L16.6262 16.628" stroke="black" stroke-width="1.00189" stroke-miterlimit="10" stroke-linecap="round"/>
</svg>
